{
    "asset" : {
        "generator" : "Khronos glTF Blender I/O v3.2.43",
        "version" : "2.0"
    },
    "extensionsUsed" : [
        "KHR_materials_unlit"
    ],
    "scene" : 0,
    "scenes" : [
        {
            "name" : "Scene",
            "nodes" : [
                0,
                1
            ]
        }
    ],
    "nodes" : [
        {
            "mesh" : 0,
            "name" : "sword",
            "rotation" : [
                -0.002099329372867942,
                -0.010715036652982235,
                0.0062279789708554745,
                0.9999209642410278
            ],
            "scale" : [
                -0.29597094655036926,
                -0.09486091136932373,
                -0.37766510248184204
            ],
            "translation" : [
                -2.042477607727051,
                3.1749908924102783,
                -0.10153239965438843
            ]
        },
        {
            "mesh" : 1,
            "name" : "scabbard",
            "rotation" : [
                0,
                0,
                -1,
                6.340762581658055e-08
            ],
            "scale" : [
                0.2930639386177063,
                0.0976879820227623,
                0.3767964839935303
            ],
            "translation" : [
                2.0435562133789062,
                3.170785427093506,
                0.43282508850097656
            ]
        }
    ],
    "animations" : [
        {
            "channels" : [
                {
                    "sampler" : 0,
                    "target" : {
                        "node" : 0,
                        "path" : "translation"
                    }
                },
                {
                    "sampler" : 1,
                    "target" : {
                        "node" : 0,
                        "path" : "rotation"
                    }
                },
                {
                    "sampler" : 2,
                    "target" : {
                        "node" : 0,
                        "path" : "scale"
                    }
                }
            ],
            "name" : "sword",
            "samplers" : [
                {
                    "input" : 15,
                    "interpolation" : "LINEAR",
                    "output" : 16
                },
                {
                    "input" : 15,
                    "interpolation" : "LINEAR",
                    "output" : 17
                },
                {
                    "input" : 15,
                    "interpolation" : "LINEAR",
                    "output" : 18
                }
            ]
        }
    ],
    "materials" : [
        {
            "doubleSided" : true,
            "extensions" : {
                "KHR_materials_unlit" : {}
            },
            "name" : "grip",
            "pbrMetallicRoughness" : {
                "baseColorTexture" : {
                    "index" : 0,
                    "texCoord" : 0
                },
                "metallicFactor" : 0,
                "roughnessFactor" : 0.9
            }
        },
        {
            "doubleSided" : true,
            "extensions" : {
                "KHR_materials_unlit" : {}
            },
            "name" : "secondary",
            "pbrMetallicRoughness" : {
                "baseColorTexture" : {
                    "index" : 1,
                    "texCoord" : 0
                },
                "metallicFactor" : 0,
                "roughnessFactor" : 0.9
            }
        },
        {
            "doubleSided" : true,
            "extensions" : {
                "KHR_materials_unlit" : {}
            },
            "name" : "primary",
            "pbrMetallicRoughness" : {
                "baseColorTexture" : {
                    "index" : 2,
                    "texCoord" : 0
                },
                "metallicFactor" : 0,
                "roughnessFactor" : 0.9
            }
        }
    ],
    "meshes" : [
        {
            "name" : "Cube.001",
            "primitives" : [
                {
                    "attributes" : {
                        "POSITION" : 0,
                        "NORMAL" : 1,
                        "TEXCOORD_0" : 2
                    },
                    "indices" : 3,
                    "material" : 0
                },
                {
                    "attributes" : {
                        "POSITION" : 4,
                        "NORMAL" : 5,
                        "TEXCOORD_0" : 6
                    },
                    "indices" : 7,
                    "material" : 1
                },
                {
                    "attributes" : {
                        "POSITION" : 8,
                        "NORMAL" : 9,
                        "TEXCOORD_0" : 10
                    },
                    "indices" : 11,
                    "material" : 2
                }
            ]
        },
        {
            "name" : "Cube.002",
            "primitives" : [
                {
                    "attributes" : {
                        "POSITION" : 12,
                        "NORMAL" : 13,
                        "TEXCOORD_0" : 14
                    },
                    "indices" : 11,
                    "material" : 0
                }
            ]
        }
    ],
    "textures" : [
        {
            "sampler" : 0,
            "source" : 0
        },
        {
            "sampler" : 0,
            "source" : 0
        },
        {
            "sampler" : 0,
            "source" : 0
        }
    ],
    "images" : [
        {
            "bufferView" : 4,
            "mimeType" : "image/png",
            "name" : "sword_baked"
        }
    ],
    "accessors" : [
        {
            "bufferView" : 0,
            "componentType" : 5126,
            "count" : 36,
            "max" : [
                0.20717699825763702,
                0.0339667946100235,
                0.34355098009109497
            ],
            "min" : [
                -0.20717699825763702,
                -0.21916599571704865,
                -5.626880168914795
            ],
            "type" : "VEC3"
        },
        {
            "bufferView" : 1,
            "componentType" : 5126,
            "count" : 36,
            "type" : "VEC3"
        },
        {
            "bufferView" : 2,
            "componentType" : 5126,
            "count" : 36,
            "type" : "VEC2"
        },
        {
            "bufferView" : 3,
            "componentType" : 5123,
            "count" : 54,
            "type" : "SCALAR"
        },
        {
            "bufferView" : 5,
            "componentType" : 5126,
            "count" : 126,
            "max" : [
                0.4952271580696106,
                0.08617886155843735,
                0.4992366433143616
            ],
            "min" : [
                -0.4952271580696106,
                -0.2713775038719177,
                -0.44304537773132324
            ],
            "type" : "VEC3"
        },
        {
            "bufferView" : 6,
            "componentType" : 5126,
            "count" : 126,
            "type" : "VEC3"
        },
        {
            "bufferView" : 7,
            "componentType" : 5126,
            "count" : 126,
            "type" : "VEC2"
        },
        {
            "bufferView" : 8,
            "componentType" : 5123,
            "count" : 216,
            "type" : "SCALAR"
        },
        {
            "bufferView" : 9,
            "componentType" : 5126,
            "count" : 72,
            "max" : [
                0.20717699825763702,
                -0.036794513463974,
                -0.44304537773132324
            ],
            "min" : [
                -0.20717699825763702,
                -0.1484050154685974,
                -5.626880168914795
            ],
            "type" : "VEC3"
        },
        {
            "bufferView" : 10,
            "componentType" : 5126,
            "count" : 72,
            "type" : "VEC3"
        },
        {
            "bufferView" : 11,
            "componentType" : 5126,
            "count" : 72,
            "type" : "VEC2"
        },
        {
            "bufferView" : 12,
            "componentType" : 5123,
            "count" : 108,
            "type" : "SCALAR"
        },
        {
            "bufferView" : 13,
            "componentType" : 5126,
            "count" : 72,
            "max" : [
                0.2643168270587921,
                0.0044226571917533875,
                -0.44304585456848145
            ],
            "min" : [
                -0.2643168270587921,
                -0.18961921334266663,
                -5.626879692077637
            ],
            "type" : "VEC3"
        },
        {
            "bufferView" : 14,
            "componentType" : 5126,
            "count" : 72,
            "type" : "VEC3"
        },
        {
            "bufferView" : 15,
            "componentType" : 5126,
            "count" : 72,
            "type" : "VEC2"
        },
        {
            "bufferView" : 16,
            "componentType" : 5126,
            "count" : 30,
            "max" : [
                1
            ],
            "min" : [
                -0.20833333333333334
            ],
            "type" : "SCALAR"
        },
        {
            "bufferView" : 17,
            "componentType" : 5126,
            "count" : 30,
            "type" : "VEC3"
        },
        {
            "bufferView" : 18,
            "componentType" : 5126,
            "count" : 30,
            "type" : "VEC4"
        },
        {
            "bufferView" : 19,
            "componentType" : 5126,
            "count" : 30,
            "type" : "VEC3"
        }
    ],
    "bufferViews" : [
        {
            "buffer" : 0,
            "byteLength" : 432,
            "byteOffset" : 0
        },
        {
            "buffer" : 0,
            "byteLength" : 432,
            "byteOffset" : 432
        },
        {
            "buffer" : 0,
            "byteLength" : 288,
            "byteOffset" : 864
        },
        {
            "buffer" : 0,
            "byteLength" : 108,
            "byteOffset" : 1152
        },
        {
            "buffer" : 0,
            "byteLength" : 3440,
            "byteOffset" : 1260
        },
        {
            "buffer" : 0,
            "byteLength" : 1512,
            "byteOffset" : 4700
        },
        {
            "buffer" : 0,
            "byteLength" : 1512,
            "byteOffset" : 6212
        },
        {
            "buffer" : 0,
            "byteLength" : 1008,
            "byteOffset" : 7724
        },
        {
            "buffer" : 0,
            "byteLength" : 432,
            "byteOffset" : 8732
        },
        {
            "buffer" : 0,
            "byteLength" : 864,
            "byteOffset" : 9164
        },
        {
            "buffer" : 0,
            "byteLength" : 864,
            "byteOffset" : 10028
        },
        {
            "buffer" : 0,
            "byteLength" : 576,
            "byteOffset" : 10892
        },
        {
            "buffer" : 0,
            "byteLength" : 216,
            "byteOffset" : 11468
        },
        {
            "buffer" : 0,
            "byteLength" : 864,
            "byteOffset" : 11684
        },
        {
            "buffer" : 0,
            "byteLength" : 864,
            "byteOffset" : 12548
        },
        {
            "buffer" : 0,
            "byteLength" : 576,
            "byteOffset" : 13412
        },
        {
            "buffer" : 0,
            "byteLength" : 120,
            "byteOffset" : 13988
        },
        {
            "buffer" : 0,
            "byteLength" : 360,
            "byteOffset" : 14108
        },
        {
            "buffer" : 0,
            "byteLength" : 480,
            "byteOffset" : 14468
        },
        {
            "buffer" : 0,
            "byteLength" : 360,
            "byteOffset" : 14948
        }
    ],
    "samplers" : [
        {
            "magFilter" : 9729,
            "minFilter" : 9987
        }
    ],
    "buffers" : [
        {
            "byteLength" : 15308,
            "uri" : "data:application/octet-stream;base64,"
        }
    ]
}
